<svg width="360" height="360" viewBox="0 0 360 360" fill="none" xmlns="http://www.w3.org/2000/svg">
<ellipse cx="82.4805" cy="291.439" rx="51.1393" ry="36.0789" transform="rotate(-31.8875 82.4805 291.439)" fill="#008E8F"/>
<ellipse cx="276.825" cy="240.399" rx="51.1393" ry="36.0789" transform="rotate(-31.8875 276.825 240.399)" fill="#008E8F"/>
<path d="M147.619 62.0777C163.323 58.1516 340 8.09337 340 10.0562C340 98.6018 340 204.4 340 236.791C340 269.182 287.979 297.647 265.403 297.647C242.828 297.647 219.044 300.005 213.382 259.367C207.719 218.729 259.514 186.733 282.089 186.733C304.665 186.733 307.609 197.53 306.628 211.271C305.646 225.013 288.673 242.111 267.366 246.607C256.548 249.526 252.205 253.878 246.754 265.256" stroke="white" stroke-width="6" stroke-linecap="round"/>
<path d="M306.628 62.0777C306.628 62.0777 147.619 102.321 147.618 105.266C147.618 108.21 147.618 234.829 147.618 284.887C147.618 334.945 78.9268 348.687 68.1139 348.687C57.301 348.687 19.0377 344.761 20.0185 307.462C20.9993 270.164 64.1886 235.81 90.6891 236.791C117.19 237.773 114.248 251.515 114.248 262.312C114.248 273.109 105.738 288.673 85.7814 293.721C65.8253 298.768 60.7179 304.726 55.3539 317.278" stroke="white" stroke-width="6" stroke-linecap="round"/>
</svg>
