<svg width="320" height="340" viewBox="0 0 320 340" fill="none" xmlns="http://www.w3.org/2000/svg">
<g clip-path="url(#clip0_18_11)">
<ellipse cx="62.4805" cy="281.439" rx="51.1393" ry="36.0789" transform="rotate(-31.8875 62.4805 281.439)" fill="#008E8F"/>
<ellipse cx="256.825" cy="230.399" rx="51.1393" ry="36.0789" transform="rotate(-31.8875 256.825 230.399)" fill="#008E8F"/>
<path d="M127.619 52.0777C143.323 48.1516 320 -1.90663 320 0.0562242C320 88.6018 320 194.4 320 226.791C320 259.182 267.979 287.647 245.403 287.647C222.828 287.647 199.044 290.005 193.382 249.367C187.719 208.729 239.514 176.733 262.089 176.733C284.665 176.733 287.609 187.53 286.628 201.271C285.646 215.013 268.673 232.111 247.366 236.607C236.548 239.526 232.205 243.878 226.754 255.256" stroke="white" stroke-width="6" stroke-linecap="round"/>
<path d="M286.628 52.0777C286.628 52.0777 127.619 92.3209 127.618 95.2656C127.618 98.2102 127.618 224.829 127.618 274.887C127.618 324.945 58.9268 338.687 48.1139 338.687C37.301 338.687 -0.962261 334.761 0.0185158 297.462C0.999293 260.164 44.1886 225.81 70.6891 226.791C97.1897 227.773 94.2482 241.515 94.2482 252.312C94.2482 263.109 85.7376 278.673 65.7814 283.721C45.8253 288.768 40.7179 294.726 35.3539 307.278" stroke="white" stroke-width="6" stroke-linecap="round"/>
</g>
<defs>
<clipPath id="clip0_18_11">
<rect width="320" height="339.088" fill="white"/>
</clipPath>
</defs>
</svg>
